<svg width="33" height="32" viewBox="0 0 33 32" fill="none" xmlns="http://www.w3.org/2000/svg">
<path d="M16.7927 11.0005C16.7927 8.25045 19.1052 5.96295 21.8552 6.00045C22.8182 6.01157 23.7576 6.3006 24.5603 6.8328C25.363 7.365 25.995 8.11771 26.3802 9.00045H30.7927L26.7552 13.038C26.4946 17.0937 24.6993 20.8979 21.7342 23.6773C18.769 26.4566 14.8567 28.0025 10.7927 28.0005C6.79267 28.0005 5.79267 26.5005 5.79267 26.5005C5.79267 26.5005 9.79267 25.0005 11.7927 22.0005C11.7927 22.0005 3.79267 18.0005 5.79267 7.00045C5.79267 7.00045 10.7927 12.0005 16.7927 13.0005V11.0005Z" stroke="#858584" stroke-width="2" stroke-linecap="round" stroke-linejoin="round"/>
</svg>
